# Blender 4.5.3 LTS
# www.blender.org
mtllib pyrolyse_oven.mtl
o Cube
v 3.000000 0.500000 -3.000000
v 3.000000 0.000000 -3.000000
v 3.000000 0.500000 3.000000
v 3.000000 0.000000 3.000000
v -2.000000 0.500000 -3.000000
v -2.000000 0.000000 -3.000000
v -2.000000 0.500000 3.000000
v -2.000000 0.000000 3.000000
v 1.200000 1.000000 -0.200000
v 1.200000 3.000000 -0.200000
v 1.200000 1.000000 -1.800000
v 1.200000 3.000000 -1.800000
v 2.800000 1.000000 -0.200000
v 2.800000 3.000000 -0.200000
v 2.800000 1.000000 -1.800000
v 2.800000 3.000000 -1.800000
v 1.000000 1.000000 2.000000
v 1.000000 3.000000 2.000000
v 1.000000 1.000000 1.000000
v 1.000000 3.000000 1.000000
v 3.000000 1.000000 2.000000
v 3.000000 3.000000 2.000000
v 3.000000 1.000000 1.000000
v 3.000000 3.000000 1.000000
v 2.675000 0.999998 1.900000
v 2.675000 0.999998 1.650000
v 2.675000 0.499998 1.650000
v 2.675000 0.499997 1.900000
v 2.900000 0.999998 1.650000
v 2.900000 0.499998 1.650000
v 2.900000 0.999998 1.900000
v 2.900000 0.499997 1.900000
v 1.421957 0.720725 -2.325000
v 1.421957 0.720725 -2.575000
v -0.021956 0.720725 -2.575000
v -0.021958 0.720725 -2.325000
v 1.421957 0.495725 -2.575000
v -0.021956 0.495725 -2.575000
v 1.421957 0.495725 -2.325000
v -0.021958 0.495725 -2.325000
v 1.646957 0.495725 -2.325000
v 1.646957 0.495725 -2.575000
v 1.646957 2.639638 -2.575000
v 1.646957 2.639640 -2.325000
v 1.421957 0.495725 -2.575000
v 1.421957 2.639638 -2.575000
v 1.421957 0.495725 -2.325000
v 1.421957 2.639640 -2.325000
v 2.002237 0.000000 -2.002873
v 2.002237 1.000000 -2.002873
v 2.002237 0.000000 -3.002873
v 2.002237 1.000000 -3.002873
v 2.999237 0.000000 -2.002873
v 2.999237 1.000000 -2.002873
v 2.999237 0.000000 -3.002873
v 2.999237 1.000000 -3.002873
v 2.050000 1.099998 -0.875000
v 2.050000 1.099998 -1.125000
v 2.050000 0.499998 -1.125000
v 2.050000 0.499997 -0.875000
v 2.275000 1.099998 -1.125000
v 2.275000 0.499998 -1.125000
v 2.275000 1.099998 -0.875000
v 2.275000 0.499997 -0.875000
v 2.050000 0.474998 -1.125000
v 2.050000 0.724998 -1.125000
v 2.050000 0.724998 -2.003126
v 2.050000 0.474998 -2.003127
v 2.275000 0.724998 -1.125000
v 2.275000 0.724998 -2.003126
v 2.275000 0.474998 -1.125000
v 2.275000 0.474998 -2.003127
v -1.998763 1.000000 2.000000
v -1.998763 4.000000 2.000000
v -1.998763 1.000000 1.000000
v -1.998763 4.000000 1.000000
v 1.001237 1.000000 2.000000
v 1.001237 4.000000 2.000000
v 1.001237 1.000000 1.000000
v 1.001237 4.000000 1.000000
v -1.998763 1.000000 -1.000000
v -1.998763 4.000000 -1.000000
v -1.998763 1.000000 -2.000000
v -1.998763 4.000000 -2.000000
v 1.001237 1.000000 -1.000000
v 1.001237 4.000000 -1.000000
v 1.001237 1.000000 -2.000000
v 1.001237 4.000000 -2.000000
v -1.998763 1.000000 -1.000000
v -1.998763 1.000000 -2.000000
v 1.001237 1.000000 -1.000000
v 1.001237 1.000000 -2.000000
v -1.000000 0.500000 3.000000
v -1.000000 3.000000 3.000000
v -1.000000 0.500000 2.000000
v -1.000000 3.000000 2.000000
v 0.000000 0.500000 3.000000
v 0.000000 3.000000 3.000000
v 0.000000 0.500000 2.000000
v 0.000000 3.000000 2.000000
v -1.000000 0.500000 -2.000000
v -1.000000 3.000000 -2.000000
v -1.000000 0.500000 -3.000000
v -1.000000 3.000000 -3.000000
v 0.000000 0.500000 -2.000000
v 0.000000 3.000000 -2.000000
v 0.000000 0.500000 -3.000000
v 0.000000 3.000000 -3.000000
v 1.000000 1.000000 1.000000
v 1.000000 0.500000 1.000000
v 1.000000 1.000000 2.000000
v 1.000000 0.500000 2.000000
v -2.000000 1.000000 1.000000
v -2.000000 0.500000 1.000000
v -2.000000 1.000000 2.000000
v -2.000000 0.500000 2.000000
v 1.000000 1.000000 -2.000000
v 1.000000 0.500000 -2.000000
v 1.000000 1.000000 -1.000000
v 1.000000 0.500000 -1.000000
v -2.000000 1.000000 -2.000000
v -2.000000 0.500000 -2.000000
v -2.000000 1.000000 -1.000000
v -2.000000 0.500000 -1.000000
v 2.675000 0.999998 1.359919
v 2.675000 0.999998 1.109919
v 2.675000 0.499998 1.109919
v 2.675000 0.499997 1.359919
v 2.900000 0.999998 1.109919
v 2.900000 0.499998 1.109919
v 2.900000 0.999998 1.359919
v 2.900000 0.499997 1.359919
v 1.087500 0.999998 1.900000
v 1.087500 0.999998 1.650000
v 1.087500 0.499998 1.650000
v 1.087500 0.499997 1.900000
v 1.312500 0.999998 1.650000
v 1.312500 0.499998 1.650000
v 1.312500 0.999998 1.900000
v 1.312500 0.499997 1.900000
v 1.087500 0.999998 1.359919
v 1.087500 0.999998 1.109919
v 1.087500 0.499998 1.109919
v 1.087500 0.499997 1.359919
v 1.312500 0.999998 1.109919
v 1.312500 0.499998 1.109919
v 1.312500 0.999998 1.359919
v 1.312500 0.499997 1.359919
v 2.387500 0.999998 -0.375000
v 2.387500 0.999998 -0.625000
v 2.387500 0.499998 -0.625000
v 2.387500 0.499997 -0.375000
v 2.612500 0.999998 -0.625000
v 2.612500 0.499998 -0.625000
v 2.612500 0.999998 -0.375000
v 2.612500 0.499997 -0.375000
v 2.387500 0.999998 -1.375000
v 2.387500 0.999998 -1.625000
v 2.387500 0.499998 -1.625000
v 2.387500 0.499997 -1.375000
v 2.612500 0.999998 -1.625000
v 2.612500 0.499998 -1.625000
v 2.612500 0.999998 -1.375000
v 2.612500 0.499997 -1.375000
v 1.387500 0.999998 -0.375000
v 1.387500 0.999998 -0.625000
v 1.387500 0.499998 -0.625000
v 1.387500 0.499997 -0.375000
v 1.612500 0.999998 -0.625000
v 1.612500 0.499998 -0.625000
v 1.612500 0.999998 -0.375000
v 1.612500 0.499997 -0.375000
v 1.387500 0.999998 -1.375000
v 1.387500 0.999998 -1.625000
v 1.387500 0.499998 -1.625000
v 1.387500 0.499997 -1.375000
v 1.612500 0.999998 -1.625000
v 1.612500 0.499998 -1.625000
v 1.612500 0.999998 -1.375000
v 1.612500 0.499997 -1.375000
v 1.421957 2.639638 -1.696873
v 1.421957 2.889638 -1.696873
v 1.421957 2.889638 -2.574999
v 1.421957 2.639638 -2.575000
v 1.646957 2.889638 -1.696873
v 1.646957 2.889638 -2.574999
v 1.646957 2.639638 -1.696873
v 1.646957 2.639638 -2.575000
vn -0.0000 1.0000 -0.0000
vn -0.0000 -0.0000 1.0000
vn -1.0000 -0.0000 -0.0000
vn -0.0000 -1.0000 -0.0000
vn 1.0000 -0.0000 -0.0000
vn -0.0000 -0.0000 -1.0000
vt 0.000000 0.625000
vt 0.312500 0.625000
vt 0.312500 1.000000
vt 0.000000 1.000000
vt 0.312500 0.593750
vt 0.000000 0.593750
vt 0.343750 0.625000
vt 0.343750 1.000000
vt 0.001021 1.001341
vt 0.687500 0.875000
vt 0.687500 1.000000
vt 0.562500 1.000000
vt 0.562500 0.875000
vt 0.812500 0.875000
vt 0.812500 1.000000
vt 0.375000 0.000000
vt 0.625000 0.000000
vt 0.625000 0.250000
vt 0.375000 0.250000
vt 1.000000 0.625000
vt 1.000000 0.812500
vt 0.812500 0.812500
vt 0.812500 0.625000
vt 0.812500 0.562500
vt 1.000000 0.562500
vt 1.000000 1.000000
vt 0.054688 0.515625
vt 0.054687 0.531250
vt 0.000000 0.531250
vt -0.000000 0.515625
vt 0.054688 0.531250
vt 0.000001 0.531250
vt 0.000001 0.515625
vt 0.054687 0.515625
vt -0.000000 0.531250
vt 0.000000 0.515625
vt -0.000001 0.531250
vt 0.109375 0.503906
vt 0.109375 0.492187
vt 0.000000 0.492188
vt 0.000000 0.503906
vt 0.156250 0.503906
vt 0.156250 0.492188
vt 0.000000 0.492188
vt 0.000000 0.503906
vt 0.625000 0.812500
vt 0.687500 0.812500
vt 0.625000 0.875000
vt 0.562500 0.812500
vt 0.125000 0.500000
vt 0.375000 0.500000
vt 0.375000 0.750000
vt 0.125000 0.750000
vt 0.039063 0.503906
vt 0.039062 0.515625
vt -0.000000 0.515625
vt -0.000001 0.503906
vt 0.000000 0.503906
vt -0.000000 0.503906
vt -0.000000 0.503906
vt -0.000000 0.515625
vt 0.039062 0.515625
vt 0.039062 0.503906
vt 0.343750 0.750000
vt 0.531250 0.750000
vt 0.531250 0.937500
vt 0.343750 0.937500
vt 0.343750 0.562500
vt 0.531250 0.562500
vt 0.812500 0.500000
vt 1.000000 0.500000
vt 0.500000 0.937500
vt 0.500000 1.000000
vt 0.562500 0.937500
vt 0.562500 0.750000
vt 0.718750 0.750000
vt 0.718750 0.812500
vt 0.625000 0.750000
vt 0.625000 1.000000
vt 0.375000 1.000000
vt 0.195312 0.562500
vt 0.195312 0.593750
vt 0.000000 0.562500
vt 0.078125 0.531250
vt 0.078125 0.562500
vt 0.000000 0.531250
vt 0.000000 0.492188
vt 0.011719 0.492188
vt 0.011719 0.503906
s 0
usemtl Material
f 1/1/1 5/2/1 7/3/1 3/4/1
f 4/5/2 3/2/2 7/1/2 8/6/2
f 8/2/3 7/7/3 5/8/3 6/3/3
f 6/1/4 2/2/4 4/3/4 8/9/4
f 2/2/5 1/7/5 3/8/5 4/3/5
f 6/5/6 5/2/6 1/1/6 2/6/6
f 9/10/3 10/11/3 12/12/3 11/13/3
f 11/10/6 12/11/6 16/12/6 15/13/6
f 15/10/5 16/11/5 14/12/5 13/13/5
f 13/10/2 14/11/2 10/12/2 9/13/2
f 11/10/4 15/14/4 13/15/4 9/11/4
f 16/10/1 12/14/1 10/15/1 14/11/1
f 17/16/3 18/17/3 20/18/3 19/19/3
f 19/20/6 20/21/6 24/22/6 23/23/6
f 23/24/5 24/25/5 22/20/5 21/23/5
f 21/21/2 22/26/2 18/15/2 17/22/2
f 19/24/4 23/25/4 21/20/4 17/23/4
f 24/24/1 20/25/1 18/20/1 22/23/1
f 25/27/3 26/28/3 27/29/3 28/30/3
f 26/27/6 29/31/6 30/32/6 27/33/6
f 29/34/5 31/31/5 32/35/5 30/36/5
f 31/27/2 25/31/2 28/37/2 32/30/2
f 33/38/1 34/39/1 35/40/1 36/41/1
f 34/41/6 37/40/6 38/39/6 35/38/6
f 37/41/4 39/40/4 40/39/4 38/38/4
f 39/41/2 33/40/2 36/39/2 40/38/2
f 41/42/5 42/43/5 43/44/5 44/45/5
f 42/45/6 45/44/6 46/43/6 43/42/6
f 45/45/3 47/44/3 48/43/3 46/42/3
f 47/45/2 41/44/2 44/43/2 48/42/2
f 49/46/3 50/47/3 52/10/3 51/48/3
f 51/46/6 52/48/6 56/13/6 55/49/6
f 55/46/5 56/47/5 54/10/5 53/48/5
f 53/46/2 54/47/2 50/10/2 49/48/2
f 51/50/4 55/51/4 53/52/4 49/53/4
f 56/46/1 52/47/1 50/10/1 54/48/1
f 57/54/3 58/55/3 59/56/3 60/57/3
f 58/54/6 61/55/6 62/56/6 59/58/6
f 61/54/5 63/55/5 64/56/5 62/58/5
f 63/54/2 57/55/2 60/56/2 64/59/2
f 65/60/3 66/61/3 67/62/3 68/63/3
f 66/61/1 69/60/1 70/63/1 67/62/1
f 69/61/5 71/60/5 72/63/5 70/62/5
f 71/61/4 65/60/4 68/63/4 72/62/4
f 73/24/3 74/25/3 76/20/3 75/23/3
f 75/64/6 76/65/6 80/66/6 79/67/6
f 79/24/5 80/25/5 78/20/5 77/23/5
f 77/68/2 78/69/2 74/65/2 73/64/2
f 75/24/4 79/25/4 77/20/4 73/23/4
f 80/24/1 76/25/1 74/20/1 78/23/1
f 81/70/3 82/71/3 84/25/3 83/24/3
f 83/68/6 84/69/6 88/65/6 87/64/6
f 87/70/5 88/71/5 86/25/5 85/24/5
f 85/64/2 86/65/2 82/66/2 81/67/2
f 88/70/1 84/71/1 82/25/1 86/24/1
f 90/70/4 92/71/4 91/25/4 89/24/4
f 93/67/3 94/72/3 96/73/3 95/8/3
f 95/67/6 96/72/6 100/73/6 99/8/6
f 99/67/5 100/72/5 98/73/5 97/8/5
f 97/67/2 98/72/2 94/73/2 93/8/2
f 95/50/4 99/51/4 97/52/4 93/53/4
f 100/74/1 96/12/1 94/73/1 98/72/1
f 101/67/3 102/72/3 104/73/3 103/8/3
f 103/75/6 104/76/6 108/77/6 107/49/6
f 107/67/5 108/72/5 106/73/5 105/8/5
f 105/52/2 106/78/2 102/79/2 101/80/2
f 103/50/4 107/51/4 105/52/4 101/53/4
f 108/73/1 104/72/1 102/74/1 106/12/1
f 112/81/2 111/82/2 115/6/2 116/83/2
f 116/84/3 115/85/3 113/83/3 114/86/3
f 110/84/5 109/85/5 111/83/5 112/86/5
f 114/81/6 113/82/6 109/6/6 110/83/6
f 120/81/2 119/82/2 123/6/2 124/83/2
f 124/84/3 123/85/3 121/83/3 122/86/3
f 118/84/5 117/85/5 119/83/5 120/86/5
f 122/81/6 121/82/6 117/6/6 118/83/6
f 125/27/3 126/28/3 127/29/3 128/30/3
f 126/27/6 129/31/6 130/32/6 127/33/6
f 129/34/5 131/31/5 132/35/5 130/36/5
f 131/27/2 125/31/2 128/37/2 132/30/2
f 133/27/3 134/28/3 135/29/3 136/30/3
f 134/27/6 137/31/6 138/32/6 135/33/6
f 137/34/5 139/31/5 140/35/5 138/36/5
f 139/27/2 133/31/2 136/37/2 140/30/2
f 141/27/3 142/28/3 143/29/3 144/30/3
f 142/27/6 145/31/6 146/32/6 143/33/6
f 145/34/5 147/31/5 148/35/5 146/36/5
f 147/27/2 141/31/2 144/37/2 148/30/2
f 149/27/3 150/28/3 151/29/3 152/30/3
f 150/27/6 153/31/6 154/32/6 151/33/6
f 153/34/5 155/31/5 156/35/5 154/36/5
f 155/27/2 149/31/2 152/37/2 156/30/2
f 157/27/3 158/28/3 159/29/3 160/30/3
f 158/27/6 161/31/6 162/32/6 159/33/6
f 161/34/5 163/31/5 164/35/5 162/36/5
f 163/27/2 157/31/2 160/37/2 164/30/2
f 165/27/3 166/28/3 167/29/3 168/30/3
f 166/27/6 169/31/6 170/32/6 167/33/6
f 169/34/5 171/31/5 172/35/5 170/36/5
f 171/27/2 165/31/2 168/37/2 172/30/2
f 173/27/3 174/28/3 175/29/3 176/30/3
f 174/27/6 177/31/6 178/32/6 175/33/6
f 177/34/5 179/31/5 180/35/5 178/36/5
f 179/27/2 173/31/2 176/37/2 180/30/2
f 181/60/3 182/61/3 183/62/3 184/63/3
f 182/61/1 185/60/1 186/63/1 183/62/1
f 185/61/5 187/60/5 188/63/5 186/62/5
f 187/61/4 181/60/4 184/63/4 188/62/4
f 184/45/6 183/87/6 186/88/6 188/89/6
