# Blender 4.5.3 LTS
# www.blender.org
mtllib industrial_furnaces.mtl
o top
v 2.000000 3.000000 -1.000000
v 2.000000 2.000000 -1.000000
v 2.000000 3.000000 2.000000
v 2.000000 2.000000 2.000000
v -1.000000 3.000000 -1.000000
v -1.000000 2.000000 -1.000000
v -1.000000 3.000000 2.000000
v -1.000000 2.000000 2.000000
vn -0.0000 1.0000 -0.0000
vn -0.0000 -0.0000 1.0000
vn -1.0000 -0.0000 -0.0000
vn -0.0000 -1.0000 -0.0000
vn 1.0000 -0.0000 -0.0000
vn -0.0000 -0.0000 -1.0000
vt 0.375000 0.375000
vt 0.000000 0.375000
vt 0.000000 0.000000
vt 0.375000 0.000000
vt 0.750000 0.875000
vt 0.750000 1.000000
vt 0.375000 1.000000
vt 0.375000 0.875000
vt 0.750000 0.625000
vt 0.750000 0.750000
vt 0.375000 0.750000
vt 0.375000 0.625000
vt 0.375000 0.250000
vt 0.750000 0.250000
s 0
usemtl Material
f 1/1/1 5/2/1 7/3/1 3/4/1
f 4/5/2 3/6/2 7/7/2 8/8/2
f 8/9/3 7/10/3 5/11/3 6/12/3
f 6/13/4 2/14/4 4/9/4 8/12/4
f 2/9/5 1/10/5 3/11/5 4/12/5
f 6/5/6 5/6/6 1/7/6 2/8/6
o botton
v 2.000000 1.000000 -1.000000
v 2.000000 0.000000 -1.000000
v 2.000000 1.000000 2.000000
v 2.000000 0.000000 2.000000
v -1.000000 1.000000 -1.000000
v -1.000000 0.000000 -1.000000
v -1.000000 1.000000 2.000000
v -1.000000 0.000000 2.000000
v 2.000000 1.000000 -1.000000
v 2.000000 0.000000 -1.000000
v 2.000000 1.000000 2.000000
v 2.000000 0.000000 2.000000
v -1.000000 1.000000 -1.000000
v -1.000000 0.000000 -1.000000
v -1.000000 1.000000 2.000000
v -1.000000 0.000000 2.000000
vn -0.0000 -0.0000 1.0000
vn -1.0000 -0.0000 -0.0000
vn 1.0000 -0.0000 -0.0000
vn -0.0000 -0.0000 -1.0000
vn -0.0000 1.0000 -0.0000
vn -0.0000 -1.0000 -0.0000
vt 0.750000 0.750000
vt 0.750000 0.875000
vt 0.375000 0.875000
vt 0.375000 0.750000
vt 0.375000 0.500000
vt 0.375000 0.625000
vt 0.000000 0.625000
vt 0.000000 0.500000
vt 0.375000 0.375000
vt 0.000000 0.375000
vt 0.750000 1.000000
vt 0.375000 1.000000
vt 0.375000 0.250000
vt 0.750000 0.250000
vt 0.750000 0.625000
vt 0.000000 1.000000
s 0
usemtl Material
f 12/15/7 11/16/7 15/17/7 16/18/7
f 16/19/8 15/20/8 13/21/8 14/22/8
f 10/23/9 9/19/9 11/22/9 12/24/9
f 14/16/10 13/25/10 9/26/10 10/17/10
f 17/27/11 21/28/11 23/29/11 19/20/11
f 22/21/12 18/20/12 20/26/12 24/30/12
