# Blender 4.5.3 LTS
# www.blender.org
mtllib flywheel.mtl
o Cube
v 0.500000 0.500000 0.100000
v 1.035757 1.793431 0.100000
v -0.035757 1.793431 0.100000
v 1.035757 1.793431 0.900000
v 0.500000 0.500000 0.900000
v -0.035757 1.793431 0.900000
v 0.500000 0.500000 0.100000
v -0.035757 1.793431 0.100000
v -0.793431 1.035757 0.100000
v -0.035757 1.793431 0.900000
v 0.500000 0.500000 0.900000
v -0.793431 1.035757 0.900000
v 0.500000 0.500000 0.100000
v -0.793431 1.035757 0.100000
v -0.793431 -0.035757 0.100000
v -0.793431 1.035757 0.900000
v 0.500000 0.500000 0.900000
v -0.793431 -0.035757 0.900000
v 0.500000 0.500000 0.100000
v -0.793431 -0.035757 0.100000
v -0.035757 -0.793431 0.100000
v -0.793431 -0.035757 0.900000
v 0.500000 0.500000 0.900000
v -0.035757 -0.793431 0.900000
v 0.500000 0.500000 0.100000
v -0.035757 -0.793431 0.100000
v 1.035757 -0.793431 0.100000
v -0.035757 -0.793431 0.900000
v 0.500000 0.500000 0.900000
v 1.035757 -0.793431 0.900000
v 0.500000 0.500000 0.100000
v 1.035757 -0.793431 0.100000
v 1.793431 -0.035757 0.100000
v 1.035757 -0.793431 0.900000
v 0.500000 0.500000 0.900000
v 1.793431 -0.035757 0.900000
v 0.500000 0.500000 0.100000
v 1.793431 -0.035757 0.100000
v 1.793431 1.035757 0.100000
v 1.793431 -0.035757 0.900000
v 0.500000 0.500000 0.900000
v 1.793431 1.035757 0.900000
v 0.500000 0.500000 0.100000
v 1.793431 1.035757 0.100000
v 1.035757 1.793431 0.100000
v 1.793431 1.035757 0.900000
v 0.500000 0.500000 0.900000
v 1.035756 1.793431 0.900000
v 0.638582 0.557403 0.000000
v 0.638582 0.557402 1.000000
v 0.638582 0.442598 0.000000
v 0.638582 0.442597 1.000000
v 0.557403 0.361418 0.000000
v 0.557402 0.361418 1.000000
v 0.442598 0.361418 0.000000
v 0.442597 0.361418 1.000000
v 0.361418 0.442598 0.000000
v 0.361418 0.442597 1.000000
v 0.361418 0.557403 0.000000
v 0.361418 0.557402 1.000000
v 0.442598 0.638582 0.000000
v 0.442597 0.638582 1.000000
v 0.557402 0.638582 0.000000
v 0.557402 0.638582 1.000000
vn -0.0000 -0.0000 -1.0000
vn -0.0000 -0.0000 1.0000
vn -0.0000 1.0000 -0.0000
vn -0.7071 0.7071 -0.0000
vn -1.0000 -0.0000 -0.0000
vn -0.7071 -0.7071 -0.0000
vn -0.0000 -1.0000 -0.0000
vn 0.7071 -0.7071 -0.0000
vn 1.0000 -0.0000 -0.0000
vn 0.7071 0.7071 -0.0000
vt 0.500000 1.000000
vt 0.062500 0.000000
vt 0.937500 0.000000
vt 0.937500 0.000000
vt 0.000000 1.000000
vt 0.000000 0.000000
vt 1.000384 0.000043
vt 1.000384 1.000000
vt 0.062500 0.000000
vt 0.062500 -0.000000
vt 0.000000 0.000000
vt 0.000000 0.999978
vt 1.000384 1.000022
vt 1.000384 -0.000000
vt 1.000000 0.500000
vt 1.000000 1.000000
vt 0.875000 1.000000
vt 0.875000 0.500000
vt 0.750000 1.000000
vt 0.750000 0.500000
vt 0.625000 1.000000
vt 0.625000 0.500000
vt 0.500000 0.500000
vt 0.375000 1.000000
vt 0.375000 0.500000
vt 0.250000 1.000000
vt 0.250000 0.500000
vt 0.341844 0.471731
vt 0.158156 0.471731
vt 0.028269 0.341844
vt 0.028269 0.158156
vt 0.158156 0.028269
vt 0.341844 0.028269
vt 0.471731 0.158156
vt 0.471731 0.341844
vt 0.125000 1.000000
vt 0.125000 0.500000
vt 0.000000 1.000000
vt 0.000000 0.500000
vt 0.658156 0.471731
vt 0.841844 0.471731
vt 0.971731 0.341844
vt 0.971731 0.158156
vt 0.841844 0.028269
vt 0.658156 0.028269
vt 0.528269 0.158156
vt 0.528269 0.341844
s 0
usemtl material
f 1/1/1 3/2/1 2/3/1
f 5/1/2 4/2/2 6/4/2
f 2/5/3 3/6/3 6/7/3 4/8/3
f 7/1/1 9/4/1 8/9/1
f 11/1/2 10/4/2 12/10/2
f 8/11/4 9/12/4 12/13/4 10/14/4
f 13/1/1 15/2/1 14/3/1
f 17/1/2 16/2/2 18/4/2
f 14/5/5 15/6/5 18/7/5 16/8/5
f 19/1/1 21/4/1 20/9/1
f 23/1/2 22/4/2 24/10/2
f 20/11/6 21/12/6 24/13/6 22/14/6
f 25/1/1 27/2/1 26/3/1
f 29/1/2 28/2/2 30/4/2
f 26/5/7 27/6/7 30/7/7 28/8/7
f 31/1/1 33/4/1 32/9/1
f 35/1/2 34/4/2 36/10/2
f 32/11/8 33/12/8 36/13/8 34/14/8
f 37/1/1 39/2/1 38/3/1
f 41/1/2 40/2/2 42/4/2
f 38/5/9 39/6/9 42/7/9 40/8/9
f 43/1/1 45/4/1 44/9/1
f 47/1/2 46/4/2 48/10/2
f 44/11/10 45/12/10 48/13/10 46/14/10
usemtl axis
f 49/15/9 50/16/9 52/17/9 51/18/9
f 51/18/8 52/17/8 54/19/8 53/20/8
f 53/20/7 54/19/7 56/21/7 55/22/7
f 55/22/6 56/21/6 58/1/6 57/23/6
f 57/23/5 58/1/5 60/24/5 59/25/5
f 59/25/4 60/24/4 62/26/4 61/27/4
f 52/28/2 50/29/2 64/30/2 62/31/2 60/32/2 58/33/2 56/34/2 54/35/2
f 61/27/3 62/26/3 64/36/3 63/37/3
f 63/37/10 64/36/10 50/38/10 49/39/10
f 49/40/1 51/41/1 53/42/1 55/43/1 57/44/1 59/45/1 61/46/1 63/47/1
