# Blender 4.5.3 LTS
# www.blender.org
mtllib endpoint.mtl
o ring
v -0.250000 3.000000 0.000000
v -1.000000 2.250000 0.000000
v 1.250000 3.000000 0.000000
v 2.000000 2.250000 0.000000
v -1.000000 0.750000 -0.000000
v -0.250000 0.000000 -0.000000
v 2.000000 0.750000 -0.000000
v 1.250000 0.000000 -0.000000
v 1.500000 1.942893 0.000000
v 0.942893 2.500000 0.000000
v 0.057107 2.500000 0.000000
v -0.500000 1.942893 0.000000
v -0.500000 1.057107 -0.000000
v 0.057107 0.500000 -0.000000
v 0.942893 0.500000 -0.000000
v 1.500000 1.057107 -0.000000
v -1.000000 0.000000 0.000000
v 2.000000 0.000000 0.000000
v -0.250000 3.000000 1.000000
v -1.000000 2.250000 1.000000
v 1.250000 3.000000 1.000000
v 2.000000 2.250000 1.000000
v -1.000000 0.750000 1.000000
v -0.250000 0.000000 1.000000
v 2.000000 0.750000 1.000000
v 1.250000 0.000000 1.000000
v 1.500000 1.942893 1.000000
v 0.942893 2.500000 1.000000
v 0.057107 2.500000 1.000000
v -0.500000 1.942893 1.000000
v -0.500000 1.057107 1.000000
v 0.057107 0.500000 1.000000
v 0.942893 0.500000 1.000000
v 1.500000 1.057107 1.000000
v -1.000000 0.000000 1.000000
v 2.000000 0.000000 1.000000
v -1.000000 0.000000 2.000000
v -1.000000 2.000000 2.000000
v -1.000000 0.000000 1.000000
v -1.000000 2.000000 1.000000
v -0.500000 0.000000 2.000000
v -0.500000 2.000000 2.000000
v -0.500000 0.000000 1.000000
v -0.500000 2.000000 1.000000
v 1.500000 0.000000 2.000000
v 1.500000 2.000000 2.000000
v 1.500000 0.000000 1.000000
v 1.500000 2.000000 1.000000
v 2.000000 0.000000 2.000000
v 2.000000 2.000000 2.000000
v 2.000000 0.000000 1.000000
v 2.000000 2.000000 1.000000
v -0.500000 2.000000 2.000000
v 1.500000 2.000000 2.000000
v -0.500000 2.000000 1.000000
v 1.500000 2.000000 1.000000
v -0.500000 1.688450 2.000000
v 1.500000 1.688450 2.000000
v -0.500000 1.688450 1.000000
v 1.500000 1.688450 1.000000
v 0.000000 0.000000 3.000000
v 0.000000 0.000000 2.500000
v 1.000000 0.000000 3.000000
v 1.000000 0.000000 2.500000
v 0.400000 2.000000 3.000000
v 0.000000 1.600000 3.000000
v 0.200000 1.946410 3.000000
v 0.053590 1.800000 3.000000
v 1.000000 1.600000 3.000000
v 0.600000 2.000000 3.000000
v 0.946410 1.800000 3.000000
v 0.800000 1.946410 3.000000
v 0.000000 1.600000 2.500000
v 0.053590 1.800000 2.500000
v 0.200000 1.946410 2.500000
v 0.400000 2.000000 2.500000
v 0.600000 2.000000 2.500000
v 0.800000 1.946410 2.500000
v 0.946410 1.800000 2.500000
v 1.000000 1.600000 2.500000
v 0.250489 1.400000 1.440187
v 0.250489 1.700000 1.440187
v 0.250489 1.400000 1.308938
v 0.250489 1.700000 1.308938
v 0.312989 1.400000 1.440187
v 0.312989 1.700000 1.440187
v 0.312989 1.400000 1.308938
v 0.312989 1.700000 1.308938
v 0.250489 1.400000 1.690570
v 0.250489 1.700000 1.690570
v 0.250489 1.400000 1.559320
v 0.250489 1.700000 1.559320
v 0.312989 1.400000 1.690570
v 0.312989 1.700000 1.690570
v 0.312989 1.400000 1.559320
v 0.312989 1.700000 1.559320
v 0.686996 1.400000 1.440187
v 0.686996 1.700000 1.440187
v 0.686996 1.400000 1.308938
v 0.686996 1.700000 1.308938
v 0.749496 1.400000 1.440187
v 0.749496 1.700000 1.440187
v 0.749496 1.400000 1.308938
v 0.749496 1.700000 1.308938
v 0.686996 1.400000 1.690570
v 0.686996 1.700000 1.690570
v 0.686996 1.400000 1.559320
v 0.686996 1.700000 1.559320
v 0.749496 1.400000 1.690570
v 0.749496 1.700000 1.690570
v 0.749496 1.400000 1.559320
v 0.749496 1.700000 1.559320
vn -0.0000 -0.0000 -1.0000
vn -0.0000 -0.0000 1.0000
vn -0.7071 0.7071 -0.0000
vn 1.0000 -0.0000 -0.0000
vn -1.0000 -0.0000 -0.0000
vn 0.7071 0.7071 -0.0000
vn -0.0000 -1.0000 -0.0000
vn -0.0000 1.0000 -0.0000
vn -0.7071 -0.7071 -0.0000
vn 0.7071 -0.7071 -0.0000
vn 0.9659 0.2588 -0.0000
vn -0.9659 0.2588 -0.0000
vn 0.2588 0.9659 -0.0000
vn -0.2588 0.9659 -0.0000
vt 0.352369 0.833333
vt 0.250000 1.000000
vt -0.000000 0.750000
vt 0.166667 0.647631
vt 0.647631 0.833333
vt 0.750000 1.000000
vt 0.833333 0.647631
vt 1.000000 0.750000
vt 0.833333 0.352369
vt 1.000000 0.250000
vt 0.647631 0.166667
vt 0.750000 0.000000
vt 0.647631 0.833333
vt 0.833333 0.647631
vt 1.000000 0.750000
vt 0.750000 1.000000
vt 0.352369 0.833333
vt 0.250000 1.000000
vt 0.166667 0.647631
vt 0.000000 0.750000
vt 0.166667 0.352369
vt -0.000000 0.250000
vt 0.352369 0.166667
vt 0.250000 0.000000
vt 0.647631 0.166667
vt 0.750000 0.000000
vt 0.833333 0.352369
vt 1.000000 0.250000
vt 0.265625 0.750000
vt 0.265625 1.000000
vt 0.000000 1.000000
vt 0.000000 0.000000
vt 0.437500 0.000000
vt 0.437500 0.250000
vt 0.000000 0.250000
vt 0.000000 0.500000
vt 0.390625 0.500000
vt 0.390625 0.750000
vt 0.000000 0.000000
vt 0.437500 0.000000
vt 0.437500 0.250000
vt -0.000000 0.250000
vt 0.000000 0.250000
vt 0.187500 0.250000
vt 0.187500 0.500000
vt -0.000000 0.500000
vt 0.000000 -0.000000
vt 0.437500 0.000000
vt -0.000000 0.250000
vt 0.562500 0.250000
vt 0.562500 0.500000
vt -0.000000 0.250000
vt 0.410156 0.000000
vt 0.437500 0.000000
vt 0.437500 0.250000
vt 0.578125 0.500000
vt 0.578125 0.750000
vt -0.000000 0.000000
vt 0.437500 0.000000
vt 0.437500 0.250000
vt 0.000000 0.250000
vt 0.437500 0.250000
vt 0.000000 0.250000
vt 0.000000 -0.000000
vt 0.000000 0.750000
vt 0.000000 0.500000
vt 0.000000 0.250000
vt -0.000000 0.000000
vt 0.437500 -0.000000
vt 0.187500 0.250000
vt 0.578125 0.500000
vt 0.000000 -0.000000
vt 0.437500 0.000000
vt 1.000000 -0.000000
vt 1.000000 1.000000
vt 0.000000 1.000000
vt -0.000000 1.000000
vt 0.000000 0.500000
vt 0.250000 0.500000
vt 0.250000 1.000000
vt -0.000000 1.000000
vt 0.000000 0.500000
vt 0.578125 1.000000
vt 0.703125 1.000000
vt 0.703125 0.500000
vt 0.187500 0.937500
vt 0.062500 0.937500
vt 0.062500 0.687500
vt 0.187500 0.687500
vt 0.500000 0.875000
vt 0.500000 1.000000
vt 0.250000 1.000000
vt 0.250000 0.875000
vt 1.000000 0.000000
vt 1.000000 1.000000
vt 0.500000 0.250000
vt 0.500000 0.375000
vt 0.250000 0.375000
vt 0.250000 0.250000
vt 0.250000 0.875000
vt 0.500000 0.375000
vt 0.500000 0.500000
vt 0.125000 0.500000
vt 0.375000 0.500000
vt 0.375000 0.750000
vt 0.125000 0.750000
vt 0.625000 0.500000
vt 0.875000 0.500000
vt 0.875000 0.750000
vt 0.625000 0.750000
vt 0.500000 1.000000
vt 0.500000 0.500000
vt 0.562500 0.500000
vt 0.562500 1.000000
vt 1.000000 0.499867
vt 1.000000 0.899867
vt 0.750000 0.899867
vt 0.750000 0.499867
vt 0.750000 0.499867
vt 1.000000 0.499867
vt 0.875000 0.937500
vt 0.875000 1.000000
vt 0.750000 0.937500
vt 0.875000 1.000000
vt 0.750000 0.750000
vt 0.875000 0.898438
vt 0.750000 0.500000
vt 0.750000 0.898438
vt 0.750000 0.500000
vt 0.750000 0.898438
vt 0.500000 0.500000
vt 0.500000 0.421875
vt 0.531250 0.421875
vt 0.531250 0.500000
vt 0.531250 0.500000
vt 0.515625 0.500000
vt 0.515625 0.421875
vt 0.531250 0.421875
vt 0.500000 0.421875
vt 0.531250 0.437500
vt 0.500000 0.437500
vt 1.000000 0.000000
vt 0.000000 0.250000
vt 0.166667 0.352369
vt 0.352369 0.166667
vt 0.250000 0.000000
vt 0.750000 0.250000
vt 1.000000 0.000000
vt 0.986603 0.949867
vt 0.763397 0.949867
vt 0.950000 0.986470
vt 0.800000 0.986470
vt 0.900000 0.999867
vt 0.850000 0.999867
vt 0.950000 0.986470
vt 0.800000 0.986470
s 0
usemtl ring
f 10/1/1 3/2/1 4/3/1 9/4/1
f 11/5/1 1/6/1 3/2/1 10/1/1
f 12/7/1 2/8/1 1/6/1 11/5/1
f 13/9/1 5/10/1 2/8/1 12/7/1
f 14/11/1 6/12/1 5/10/1 13/9/1
f 28/13/2 27/14/2 22/15/2 21/16/2
f 29/17/2 28/13/2 21/16/2 19/18/2
f 30/19/2 29/17/2 19/18/2 20/20/2
f 31/21/2 30/19/2 20/20/2 23/22/2
f 32/23/2 31/21/2 23/22/2 24/24/2
f 33/25/2 32/23/2 24/24/2 26/26/2
f 34/27/2 33/25/2 26/26/2 25/28/2
f 27/14/2 34/27/2 25/28/2 22/15/2
f 88/107/8 84/108/8 82/109/8 86/110/8
f 5/10/1 6/12/1 17/142/1
f 7/143/1 16/144/1 9/4/1 4/3/1
f 15/145/1 8/146/1 6/12/1 14/11/1
f 16/144/1 7/143/1 8/146/1 15/145/1
f 8/146/1 7/143/1 18/32/1
f 24/24/2 23/22/2 35/32/2
f 25/28/2 26/26/2 36/148/2
usemtl side
f 1/20/3 2/29/3 20/30/3 19/31/3
f 13/32/4 12/33/4 30/34/4 31/35/4
f 2/36/5 5/37/5 23/38/5 20/20/5
f 14/39/6 13/40/6 31/41/6 32/42/6
f 17/43/7 6/44/7 24/45/7 35/46/7
f 15/47/8 14/48/8 32/34/8 33/49/8
f 6/44/7 8/50/7 26/51/7 24/45/7
f 34/52/3 16/53/3 15/54/3 33/55/3
f 36/56/4 18/57/4 7/38/4 25/37/4
f 9/58/5 16/59/5 34/60/5 27/61/5
f 10/62/9 9/63/9 27/64/9 28/48/9
f 7/38/4 4/65/4 22/66/4 25/37/4
f 4/30/6 3/31/6 21/20/6 22/29/6
f 11/62/7 10/67/7 28/68/7 29/69/7
f 3/70/8 1/50/8 19/51/8 21/45/8
f 5/37/5 17/71/5 35/57/5 23/38/5
f 12/72/10 11/73/10 29/62/10 30/63/10
f 8/50/7 18/147/7 36/129/7 26/51/7
usemtl interface
f 45/77/5 46/78/5 48/79/5 47/2/5
f 43/79/4 44/80/4 42/81/4 41/82/4
f 41/56/2 42/83/2 38/84/2 37/85/2
f 39/86/7 43/87/7 41/88/7 37/89/7
f 44/90/8 40/91/8 38/92/8 42/93/8
f 49/85/2 50/84/2 46/83/2 45/56/2
f 47/86/7 51/87/7 49/88/7 45/89/7
f 52/96/8 48/97/8 46/98/8 50/99/8
f 53/100/8 54/98/8 56/101/8 55/90/8
f 59/97/7 60/90/7 58/93/7 57/98/7
f 57/56/2 58/83/2 54/91/2 53/102/2
f 55/103/5 59/104/5 57/105/5 53/106/5
f 60/107/4 56/108/4 54/109/4 58/110/4
f 55/111/1 56/112/1 60/113/1 59/114/1
f 62/115/1 73/116/1 80/117/1 64/118/1
f 61/119/2 63/120/2 69/116/2 66/117/2
f 71/121/11 69/122/11 80/6/11 79/123/11
f 63/109/7 61/124/7 62/6/7 64/125/7
f 65/121/8 70/122/8 77/6/8 76/123/8
f 66/121/12 68/122/12 74/6/12 73/123/12
f 69/126/4 63/108/4 64/127/4 80/128/4
f 70/121/13 72/122/13 78/6/13 77/123/13
f 68/121/3 67/122/3 75/6/3 74/123/3
f 72/121/6 71/122/6 79/6/6 78/123/6
f 67/121/14 65/122/14 76/6/14 75/123/14
f 61/126/5 66/108/5 73/129/5 62/130/5
f 81/131/5 82/132/5 84/133/5 83/134/5
f 83/133/1 84/135/1 88/136/1 87/137/1
f 87/138/4 88/135/4 86/131/4 85/139/4
f 85/137/2 86/136/2 82/102/2 81/139/2
f 83/133/7 87/140/7 85/141/7 81/139/7
f 89/131/5 90/132/5 92/133/5 91/134/5
f 91/133/1 92/135/1 96/136/1 95/137/1
f 95/138/4 96/135/4 94/131/4 93/139/4
f 93/137/2 94/136/2 90/102/2 89/139/2
f 91/133/7 95/140/7 93/141/7 89/139/7
f 97/131/5 98/132/5 100/133/5 99/134/5
f 99/133/1 100/135/1 104/136/1 103/137/1
f 103/138/4 104/135/4 102/131/4 101/139/4
f 101/137/2 102/136/2 98/102/2 97/139/2
f 99/133/7 103/140/7 101/141/7 97/139/7
f 105/131/5 106/132/5 108/133/5 107/134/5
f 107/133/1 108/135/1 112/136/1 111/137/1
f 111/138/4 112/135/4 110/131/4 109/139/4
f 109/137/2 110/136/2 106/102/2 105/139/2
f 107/133/7 111/140/7 109/141/7 105/139/7
f 80/117/1 73/116/1 74/149/1 79/150/1
f 79/150/1 74/149/1 75/151/1 78/152/1
f 78/152/1 75/151/1 76/153/1 77/154/1
f 66/117/2 69/116/2 71/149/2 68/150/2
f 68/150/2 71/149/2 72/155/2 67/156/2
f 67/156/2 72/155/2 70/153/2 65/154/2
usemtl connection
f 37/74/5 38/75/5 40/76/5 39/32/5
f 51/94/4 52/95/4 50/76/4 49/32/4
o coil
v 0.500000 1.500000 0.250000
v 0.710476 2.008134 0.250000
v 0.289524 2.008134 0.250000
v 0.710476 2.008134 0.750000
v 0.500000 1.500000 0.750000
v 0.289524 2.008134 0.750000
v 0.350000 2.008134 0.350000
v 0.350000 2.008134 0.650000
v 0.650000 2.008134 0.350000
v 0.650000 2.008134 0.650000
v 0.650000 2.448134 0.350000
v 0.350000 2.448134 0.350000
v 0.350000 2.448134 0.650000
v 0.650000 2.448134 0.650000
v 0.500000 1.500000 0.250000
v 0.289524 2.008134 0.250000
v -0.008134 1.710476 0.250000
v 0.289524 2.008134 0.750000
v 0.500000 1.500000 0.750000
v -0.008134 1.710476 0.750000
v 0.034629 1.753239 0.350000
v 0.034629 1.753239 0.650000
v 0.246761 1.965371 0.350000
v 0.246761 1.965371 0.650000
v -0.064366 2.276498 0.350000
v -0.276498 2.064366 0.350000
v -0.276498 2.064366 0.650000
v -0.064366 2.276498 0.650000
v 0.500000 1.500000 0.250000
v -0.008134 1.710476 0.250000
v -0.008134 1.289524 0.250000
v -0.008134 1.710476 0.750000
v 0.500000 1.500000 0.750000
v -0.008134 1.289524 0.750000
v -0.008134 1.350000 0.350000
v -0.008134 1.350000 0.650000
v -0.008134 1.650000 0.350000
v -0.008134 1.650000 0.650000
v -0.448134 1.650000 0.350000
v -0.448134 1.350000 0.350000
v -0.448134 1.350000 0.650000
v -0.448134 1.650000 0.650000
v 0.500000 1.500000 0.250000
v -0.008134 1.289524 0.250000
v 0.289524 0.991866 0.250000
v -0.008134 1.289524 0.750000
v 0.500000 1.500000 0.750000
v 0.289524 0.991866 0.750000
v 0.246761 1.034629 0.350000
v 0.246761 1.034629 0.650000
v 0.034629 1.246761 0.350000
v 0.034629 1.246761 0.650000
v -0.276498 0.935634 0.350000
v -0.064366 0.723502 0.350000
v -0.064366 0.723502 0.650000
v -0.276498 0.935634 0.650000
v 0.500000 1.500000 0.250000
v 0.289524 0.991866 0.250000
v 0.710476 0.991866 0.250000
v 0.289524 0.991866 0.750000
v 0.500000 1.500000 0.750000
v 0.710476 0.991866 0.750000
v 0.650000 0.991866 0.350000
v 0.650000 0.991866 0.650000
v 0.350000 0.991866 0.350000
v 0.350000 0.991866 0.650000
v 0.350000 0.551866 0.350000
v 0.650000 0.551866 0.350000
v 0.650000 0.551866 0.650000
v 0.350000 0.551866 0.650000
v 0.500000 1.500000 0.250000
v 0.710476 0.991866 0.250000
v 1.008134 1.289524 0.250000
v 0.710476 0.991866 0.750000
v 0.500000 1.500000 0.750000
v 1.008134 1.289524 0.750000
v 0.965371 1.246761 0.350000
v 0.965371 1.246761 0.650000
v 0.753239 1.034629 0.350000
v 0.753239 1.034629 0.650000
v 1.064366 0.723502 0.350000
v 1.276498 0.935634 0.350000
v 1.276498 0.935634 0.650000
v 1.064366 0.723502 0.650000
v 0.500000 1.500000 0.250000
v 1.008134 1.289524 0.250000
v 1.008134 1.710476 0.250000
v 1.008134 1.289524 0.750000
v 0.500000 1.500000 0.750000
v 1.008134 1.710476 0.750000
v 1.008134 1.650000 0.350000
v 1.008134 1.650000 0.650000
v 1.008134 1.350000 0.350000
v 1.008134 1.350000 0.650000
v 1.448134 1.350000 0.350000
v 1.448134 1.650000 0.350000
v 1.448134 1.650000 0.650000
v 1.448134 1.350000 0.650000
v 0.500000 1.500000 0.250000
v 1.008134 1.710476 0.250000
v 0.710476 2.008134 0.250000
v 1.008134 1.710476 0.750000
v 0.500000 1.500000 0.750000
v 0.710476 2.008134 0.750000
v 0.753239 1.965371 0.350000
v 0.753239 1.965371 0.650000
v 0.965371 1.753239 0.350000
v 0.965371 1.753239 0.650000
v 1.276498 2.064366 0.350000
v 1.064366 2.276498 0.350000
v 1.064366 2.276498 0.650000
v 1.276498 2.064366 0.650000
v 0.638582 1.557402 0.000000
v 0.638582 1.557402 2.500000
v 0.638582 1.442598 0.000000
v 0.638582 1.442598 2.500000
v 0.557403 1.361418 0.000000
v 0.557402 1.361418 2.500000
v 0.442598 1.361418 0.000000
v 0.442597 1.361418 2.500000
v 0.361418 1.442598 0.000000
v 0.361418 1.442598 2.500000
v 0.361418 1.557402 0.000000
v 0.361418 1.557402 2.500000
v 0.442598 1.638582 0.000000
v 0.442597 1.638582 2.500000
v 0.557402 1.638582 0.000000
v 0.557402 1.638582 2.500000
vn -0.0000 -0.0000 -1.0000
vn -0.0000 -0.0000 1.0000
vn -0.0000 1.0000 -0.0000
vn 1.0000 -0.0000 -0.0000
vn -1.0000 -0.0000 -0.0000
vn -0.7071 0.7071 -0.0000
vn 0.7071 0.7071 -0.0000
vn -0.7071 -0.7071 -0.0000
vn -0.0000 -1.0000 -0.0000
vn 0.7071 -0.7071 -0.0000
vt 0.250000 1.000000
vt 0.062500 0.500000
vt 0.437500 0.500000
vt 0.000000 0.500000
vt 0.500000 0.500000
vt 0.500000 1.000000
vt 0.000000 1.000000
vt 0.000000 0.000000
vt 0.500000 0.000000
vt 0.500000 0.500000
vt 0.000000 0.500000
vt 0.851562 1.000000
vt 0.500000 1.000000
vt 0.500000 0.500000
vt 0.851562 0.500000
vt 0.851562 1.000000
vt 0.500000 1.000000
vt 0.851562 0.500000
vt 0.218750 1.000000
vt 0.218750 0.375000
vt 0.156250 0.375000
vt 0.156250 1.000000
vt 0.125000 0.375000
vt 0.125000 1.000000
vt 0.062500 1.000000
vt 0.062500 0.375000
vt 0.093750 0.375000
vt 0.093750 1.000000
vt 0.125000 0.375000
vt 0.125000 1.000000
vt 0.187500 1.000000
vt 0.187500 0.375000
vt 0.218750 1.000000
vt 0.250000 0.375000
vt 0.250000 1.000000
vt 0.132067 0.960461
vt 0.132067 0.914539
vt 0.164539 0.882067
vt 0.210461 0.882067
vt 0.242933 0.914539
vt 0.242933 0.960461
vt 0.210461 0.992933
vt 0.164539 0.992933
vt 0.000000 1.000000
vt 0.000000 0.375000
vt 0.031250 0.375000
vt 0.031250 1.000000
vt 0.062500 0.375000
vt 0.062500 1.000000
vt 0.164539 0.992933
vt 0.132067 0.960461
vt 0.132067 0.914539
vt 0.164539 0.882067
vt 0.210461 0.882067
vt 0.242933 0.914539
vt 0.242933 0.960461
s 0
usemtl body
f 113/157/15 115/158/15 114/159/15
f 117/157/16 116/158/16 118/159/16
f 114/160/17 115/161/17 118/162/17 116/163/17
f 124/164/17 125/165/17 126/166/17 123/167/17
f 122/168/18 121/169/18 123/170/18 126/171/18
f 119/172/19 120/173/19 125/166/19 124/174/19
f 120/172/16 122/173/16 126/166/16 125/174/16
f 121/172/15 119/173/15 124/166/15 123/174/15
f 127/157/15 129/158/15 128/159/15
f 131/157/16 130/158/16 132/159/16
f 128/160/20 129/161/20 132/162/20 130/163/20
f 138/164/20 139/165/20 140/166/20 137/167/20
f 136/168/21 135/169/21 137/170/21 140/171/21
f 133/172/22 134/173/22 139/166/22 138/174/22
f 134/172/16 136/173/16 140/166/16 139/174/16
f 135/172/15 133/173/15 138/166/15 137/174/15
f 141/157/15 143/158/15 142/159/15
f 145/157/16 144/158/16 146/159/16
f 142/160/19 143/161/19 146/162/19 144/163/19
f 152/164/19 153/165/19 154/166/19 151/167/19
f 150/168/17 149/169/17 151/170/17 154/171/17
f 147/172/23 148/173/23 153/166/23 152/174/23
f 148/172/16 150/173/16 154/166/16 153/174/16
f 149/172/15 147/173/15 152/166/15 151/174/15
f 155/157/15 157/158/15 156/159/15
f 159/157/16 158/158/16 160/159/16
f 156/160/22 157/161/22 160/162/22 158/163/22
f 166/164/22 167/165/22 168/166/22 165/167/22
f 164/168/20 163/169/20 165/170/20 168/171/20
f 161/172/24 162/173/24 167/166/24 166/174/24
f 162/172/16 164/173/16 168/166/16 167/174/16
f 163/172/15 161/173/15 166/166/15 165/174/15
f 169/157/15 171/158/15 170/159/15
f 173/157/16 172/158/16 174/159/16
f 170/160/23 171/161/23 174/162/23 172/163/23
f 180/164/23 181/165/23 182/166/23 179/167/23
f 178/168/19 177/169/19 179/170/19 182/171/19
f 175/172/18 176/173/18 181/166/18 180/174/18
f 176/172/16 178/173/16 182/166/16 181/174/16
f 177/172/15 175/173/15 180/166/15 179/174/15
f 183/157/15 185/158/15 184/159/15
f 187/157/16 186/158/16 188/159/16
f 184/160/24 185/161/24 188/162/24 186/163/24
f 194/164/24 195/165/24 196/166/24 193/167/24
f 192/168/22 191/169/22 193/170/22 196/171/22
f 189/172/21 190/173/21 195/166/21 194/174/21
f 190/172/16 192/173/16 196/166/16 195/174/16
f 191/172/15 189/173/15 194/166/15 193/174/15
f 197/157/15 199/158/15 198/159/15
f 201/157/16 200/158/16 202/159/16
f 198/160/18 199/161/18 202/162/18 200/163/18
f 208/164/18 209/165/18 210/166/18 207/167/18
f 206/168/23 205/169/23 207/170/23 210/171/23
f 203/172/17 204/173/17 209/166/17 208/174/17
f 204/172/16 206/173/16 210/166/16 209/174/16
f 205/172/15 203/173/15 208/166/15 207/174/15
f 211/157/15 213/158/15 212/159/15
f 215/157/16 214/158/16 216/159/16
f 212/160/21 213/161/21 216/162/21 214/163/21
f 222/164/21 223/165/21 224/166/21 221/167/21
f 220/168/24 219/169/24 221/170/24 224/171/24
f 217/172/20 218/173/20 223/166/20 222/174/20
f 218/172/16 220/173/16 224/166/16 223/174/16
f 219/172/15 217/173/15 222/166/15 221/174/15
usemtl axis
f 225/175/18 226/176/18 228/177/18 227/178/18
f 227/178/24 228/177/24 230/179/24 229/180/24
f 229/181/23 230/182/23 232/183/23 231/184/23
f 231/184/22 232/183/22 234/185/22 233/186/22
f 233/187/19 234/188/19 236/176/19 235/189/19
f 235/189/20 236/176/20 238/190/20 237/191/20
f 228/192/16 226/193/16 240/194/16 238/195/16 236/196/16 234/197/16 232/198/16 230/199/16
f 237/200/17 238/201/17 240/202/17 239/203/17
f 239/203/21 240/202/21 226/204/21 225/205/21
f 225/198/15 227/206/15 229/207/15 231/208/15 233/209/15 235/210/15 237/211/15 239/212/15
