# Blender 4.5.3 LTS
# www.blender.org
mtllib bearing.mtl
o Cube
v 0.138582 0.057403 -0.500000
v 0.138582 0.057403 0.500000
v 0.138582 -0.057402 -0.500000
v 0.138582 -0.057403 0.500000
v 0.057403 -0.138582 -0.500000
v 0.057403 -0.138582 0.500000
v -0.057402 -0.138582 -0.500000
v -0.057403 -0.138582 0.500000
v -0.138582 -0.057403 -0.500000
v -0.138582 -0.057403 0.500000
v -0.138582 0.057403 -0.500000
v -0.138582 0.057402 0.500000
v -0.057403 0.138582 -0.500000
v -0.057403 0.138582 0.500000
v 0.057403 0.138582 -0.500000
v 0.057402 0.138582 0.500000
vn 1.0000 -0.0000 -0.0000
vn 0.7071 -0.7071 -0.0000
vn -0.0000 -1.0000 -0.0000
vn -0.7071 -0.7071 -0.0000
vn -1.0000 -0.0000 -0.0000
vn -0.7071 0.7071 -0.0000
vn -0.0000 -0.0000 1.0000
vn -0.0000 1.0000 -0.0000
vn 0.7071 0.7071 -0.0000
vn -0.0000 -0.0000 -1.0000
vt 1.000000 0.500000
vt 1.000000 1.000000
vt 0.875000 1.000000
vt 0.875000 0.500000
vt 0.750000 1.000000
vt 0.750000 0.500000
vt 0.625000 1.000000
vt 0.625000 0.500000
vt 0.500000 1.000000
vt 0.500000 0.500000
vt 0.375000 1.000000
vt 0.375000 0.500000
vt 0.250000 1.000000
vt 0.250000 0.500000
vt 0.341844 0.471731
vt 0.158156 0.471731
vt 0.028269 0.341844
vt 0.028269 0.158156
vt 0.158156 0.028269
vt 0.341844 0.028269
vt 0.471731 0.158156
vt 0.471731 0.341844
vt 0.125000 1.000000
vt 0.125000 0.500000
vt 0.000000 1.000000
vt 0.000000 0.500000
vt 0.658156 0.471731
vt 0.841844 0.471731
vt 0.971731 0.341844
vt 0.971731 0.158156
vt 0.841844 0.028269
vt 0.658156 0.028269
vt 0.528269 0.158156
vt 0.528269 0.341844
s 0
usemtl axis
f 1/1/1 2/2/1 4/3/1 3/4/1
f 3/4/2 4/3/2 6/5/2 5/6/2
f 5/6/3 6/5/3 8/7/3 7/8/3
f 7/8/4 8/7/4 10/9/4 9/10/4
f 9/10/5 10/9/5 12/11/5 11/12/5
f 11/12/6 12/11/6 14/13/6 13/14/6
f 4/15/7 2/16/7 16/17/7 14/18/7 12/19/7 10/20/7 8/21/7 6/22/7
f 13/14/8 14/13/8 16/23/8 15/24/8
f 15/24/9 16/23/9 2/25/9 1/26/9
f 1/27/10 3/28/10 5/29/10 7/30/10 9/31/10 11/32/10 13/33/10 15/34/10
