# Blender 4.5.3 LTS
# www.blender.org
mtllib coil.mtl
o Cube
v 0.000000 0.000000 -0.250000
v 0.210476 0.508134 -0.250000
v -0.210476 0.508134 -0.250000
v 0.210476 0.508134 0.250000
v -0.000000 0.000000 0.250000
v -0.210476 0.508134 0.250000
v -0.150000 0.508134 -0.150000
v -0.150000 0.508134 0.150000
v 0.150000 0.508134 -0.150000
v 0.150000 0.508134 0.150000
v 0.150000 0.948134 -0.150000
v -0.150000 0.948134 -0.150000
v -0.150000 0.948134 0.150000
v 0.150000 0.948134 0.150000
v -0.000000 0.000000 -0.250000
v -0.210476 0.508134 -0.250000
v -0.508134 0.210476 -0.250000
v -0.210476 0.508134 0.250000
v -0.000000 -0.000000 0.250000
v -0.508134 0.210476 0.250000
v -0.465371 0.253239 -0.150000
v -0.465371 0.253239 0.150000
v -0.253239 0.465371 -0.150000
v -0.253239 0.465371 0.150000
v -0.564366 0.776498 -0.150000
v -0.776498 0.564366 -0.150000
v -0.776498 0.564366 0.150000
v -0.564366 0.776498 0.150000
v -0.000000 -0.000000 -0.250000
v -0.508134 0.210476 -0.250000
v -0.508134 -0.210476 -0.250000
v -0.508134 0.210476 0.250000
v -0.000000 -0.000000 0.250000
v -0.508134 -0.210476 0.250000
v -0.508134 -0.150000 -0.150000
v -0.508134 -0.150000 0.150000
v -0.508134 0.150000 -0.150000
v -0.508134 0.150000 0.150000
v -0.948134 0.150000 -0.150000
v -0.948134 -0.150000 -0.150000
v -0.948134 -0.150000 0.150000
v -0.948134 0.150000 0.150000
v 0.000000 -0.000000 -0.250000
v -0.508134 -0.210476 -0.250000
v -0.210476 -0.508134 -0.250000
v -0.508134 -0.210476 0.250000
v -0.000000 -0.000000 0.250000
v -0.210476 -0.508134 0.250000
v -0.253239 -0.465371 -0.150000
v -0.253239 -0.465371 0.150000
v -0.465371 -0.253239 -0.150000
v -0.465371 -0.253239 0.150000
v -0.776498 -0.564366 -0.150000
v -0.564366 -0.776498 -0.150000
v -0.564366 -0.776498 0.150000
v -0.776498 -0.564366 0.150000
v 0.000000 -0.000000 -0.250000
v -0.210476 -0.508134 -0.250000
v 0.210476 -0.508134 -0.250000
v -0.210476 -0.508134 0.250000
v -0.000000 0.000000 0.250000
v 0.210476 -0.508134 0.250000
v 0.150000 -0.508134 -0.150000
v 0.150000 -0.508134 0.150000
v -0.150000 -0.508134 -0.150000
v -0.150000 -0.508134 0.150000
v -0.150000 -0.948134 -0.150000
v 0.150000 -0.948134 -0.150000
v 0.150000 -0.948134 0.150000
v -0.150000 -0.948134 0.150000
v 0.000000 -0.000000 -0.250000
v 0.210476 -0.508134 -0.250000
v 0.508134 -0.210476 -0.250000
v 0.210476 -0.508134 0.250000
v -0.000000 0.000000 0.250000
v 0.508134 -0.210476 0.250000
v 0.465371 -0.253239 -0.150000
v 0.465371 -0.253239 0.150000
v 0.253239 -0.465371 -0.150000
v 0.253239 -0.465371 0.150000
v 0.564366 -0.776498 -0.150000
v 0.776498 -0.564366 -0.150000
v 0.776498 -0.564366 0.150000
v 0.564366 -0.776498 0.150000
v 0.000000 0.000000 -0.250000
v 0.508134 -0.210476 -0.250000
v 0.508134 0.210476 -0.250000
v 0.508134 -0.210476 0.250000
v -0.000000 0.000000 0.250000
v 0.508134 0.210476 0.250000
v 0.508134 0.150000 -0.150000
v 0.508134 0.150000 0.150000
v 0.508134 -0.150000 -0.150000
v 0.508134 -0.150000 0.150000
v 0.948134 -0.150000 -0.150000
v 0.948134 0.150000 -0.150000
v 0.948134 0.150000 0.150000
v 0.948134 -0.150000 0.150000
v 0.000000 0.000000 -0.250000
v 0.508134 0.210476 -0.250000
v 0.210476 0.508134 -0.250000
v 0.508134 0.210476 0.250000
v -0.000000 0.000000 0.250000
v 0.210476 0.508134 0.250000
v 0.253239 0.465371 -0.150000
v 0.253239 0.465371 0.150000
v 0.465371 0.253239 -0.150000
v 0.465371 0.253239 0.150000
v 0.776498 0.564366 -0.150000
v 0.564366 0.776498 -0.150000
v 0.564366 0.776498 0.150000
v 0.776498 0.564366 0.150000
v 0.138582 0.057403 -0.500000
v 0.138582 0.057403 2.000000
v 0.138582 -0.057402 -0.500000
v 0.138582 -0.057403 2.000000
v 0.057403 -0.138582 -0.500000
v 0.057402 -0.138582 2.000000
v -0.057402 -0.138582 -0.500000
v -0.057403 -0.138582 2.000000
v -0.138582 -0.057403 -0.500000
v -0.138582 -0.057403 2.000000
v -0.138582 0.057403 -0.500000
v -0.138582 0.057402 2.000000
v -0.057403 0.138582 -0.500000
v -0.057403 0.138582 2.000000
v 0.057403 0.138582 -0.500000
v 0.057402 0.138582 2.000000
vn -0.0000 -0.0000 -1.0000
vn -0.0000 -0.0000 1.0000
vn -0.0000 1.0000 -0.0000
vn 1.0000 -0.0000 -0.0000
vn -1.0000 -0.0000 -0.0000
vn -0.7071 0.7071 -0.0000
vn 0.7071 0.7071 -0.0000
vn -0.7071 -0.7071 -0.0000
vn -0.0000 -1.0000 -0.0000
vn 0.7071 -0.7071 -0.0000
vt 0.250000 1.000000
vt 0.062500 0.500000
vt 0.437500 0.500000
vt 0.000000 0.500000
vt 0.500000 0.500000
vt 0.500000 1.000000
vt 0.000000 1.000000
vt 0.000000 0.000000
vt 0.500000 0.000000
vt 0.500000 0.500000
vt 0.000000 0.500000
vt 0.851562 1.000000
vt 0.500000 1.000000
vt 0.500000 0.500000
vt 0.851562 0.500000
vt 0.851562 1.000000
vt 0.500000 1.000000
vt 0.851562 0.500000
vt 0.218750 1.000000
vt 0.218750 0.375000
vt 0.156250 0.375000
vt 0.156250 1.000000
vt 0.125000 0.375000
vt 0.125000 1.000000
vt 0.062500 1.000000
vt 0.062500 0.375000
vt 0.093750 0.375000
vt 0.093750 1.000000
vt 0.125000 0.375000
vt 0.125000 1.000000
vt 0.187500 1.000000
vt 0.187500 0.375000
vt 0.218750 1.000000
vt 0.250000 0.375000
vt 0.250000 1.000000
vt 0.132067 0.960461
vt 0.132067 0.914539
vt 0.164539 0.882067
vt 0.210461 0.882067
vt 0.242933 0.914539
vt 0.242933 0.960461
vt 0.210461 0.992933
vt 0.164539 0.992933
vt 0.000000 1.000000
vt 0.000000 0.375000
vt 0.031250 0.375000
vt 0.031250 1.000000
vt 0.062500 0.375000
vt 0.062500 1.000000
vt 0.164539 0.992933
vt 0.132067 0.960461
vt 0.132067 0.914539
vt 0.164539 0.882067
vt 0.210461 0.882067
vt 0.242933 0.914539
vt 0.242933 0.960461
s 0
usemtl body
f 1/1/1 3/2/1 2/3/1
f 5/1/2 4/2/2 6/3/2
f 2/4/3 3/5/3 6/6/3 4/7/3
f 12/8/3 13/9/3 14/10/3 11/11/3
f 10/12/4 9/13/4 11/14/4 14/15/4
f 7/16/5 8/17/5 13/10/5 12/18/5
f 8/16/2 10/17/2 14/10/2 13/18/2
f 9/16/1 7/17/1 12/10/1 11/18/1
f 15/1/1 17/2/1 16/3/1
f 19/1/2 18/2/2 20/3/2
f 16/4/6 17/5/6 20/6/6 18/7/6
f 26/8/6 27/9/6 28/10/6 25/11/6
f 24/12/7 23/13/7 25/14/7 28/15/7
f 21/16/8 22/17/8 27/10/8 26/18/8
f 22/16/2 24/17/2 28/10/2 27/18/2
f 23/16/1 21/17/1 26/10/1 25/18/1
f 29/1/1 31/2/1 30/3/1
f 33/1/2 32/2/2 34/3/2
f 30/4/5 31/5/5 34/6/5 32/7/5
f 40/8/5 41/9/5 42/10/5 39/11/5
f 38/12/3 37/13/3 39/14/3 42/15/3
f 35/16/9 36/17/9 41/10/9 40/18/9
f 36/16/2 38/17/2 42/10/2 41/18/2
f 37/16/1 35/17/1 40/10/1 39/18/1
f 43/1/1 45/2/1 44/3/1
f 47/1/2 46/2/2 48/3/2
f 44/4/8 45/5/8 48/6/8 46/7/8
f 54/8/8 55/9/8 56/10/8 53/11/8
f 52/12/6 51/13/6 53/14/6 56/15/6
f 49/16/10 50/17/10 55/10/10 54/18/10
f 50/16/2 52/17/2 56/10/2 55/18/2
f 51/16/1 49/17/1 54/10/1 53/18/1
f 57/1/1 59/2/1 58/3/1
f 61/1/2 60/2/2 62/3/2
f 58/4/9 59/5/9 62/6/9 60/7/9
f 68/8/9 69/9/9 70/10/9 67/11/9
f 66/12/5 65/13/5 67/14/5 70/15/5
f 63/16/4 64/17/4 69/10/4 68/18/4
f 64/16/2 66/17/2 70/10/2 69/18/2
f 65/16/1 63/17/1 68/10/1 67/18/1
f 71/1/1 73/2/1 72/3/1
f 75/1/2 74/2/2 76/3/2
f 72/4/10 73/5/10 76/6/10 74/7/10
f 82/8/10 83/9/10 84/10/10 81/11/10
f 80/12/8 79/13/8 81/14/8 84/15/8
f 77/16/7 78/17/7 83/10/7 82/18/7
f 78/16/2 80/17/2 84/10/2 83/18/2
f 79/16/1 77/17/1 82/10/1 81/18/1
f 85/1/1 87/2/1 86/3/1
f 89/1/2 88/2/2 90/3/2
f 86/4/4 87/5/4 90/6/4 88/7/4
f 96/8/4 97/9/4 98/10/4 95/11/4
f 94/12/9 93/13/9 95/14/9 98/15/9
f 91/16/3 92/17/3 97/10/3 96/18/3
f 92/16/2 94/17/2 98/10/2 97/18/2
f 93/16/1 91/17/1 96/10/1 95/18/1
f 99/1/1 101/2/1 100/3/1
f 103/1/2 102/2/2 104/3/2
f 100/4/7 101/5/7 104/6/7 102/7/7
f 110/8/7 111/9/7 112/10/7 109/11/7
f 108/12/10 107/13/10 109/14/10 112/15/10
f 105/16/6 106/17/6 111/10/6 110/18/6
f 106/16/2 108/17/2 112/10/2 111/18/2
f 107/16/1 105/17/1 110/10/1 109/18/1
usemtl axis
f 113/19/4 114/20/4 116/21/4 115/22/4
f 115/22/10 116/21/10 118/23/10 117/24/10
f 117/25/9 118/26/9 120/27/9 119/28/9
f 119/28/8 120/27/8 122/29/8 121/30/8
f 121/31/5 122/32/5 124/20/5 123/33/5
f 123/33/6 124/20/6 126/34/6 125/35/6
f 116/36/2 114/37/2 128/38/2 126/39/2 124/40/2 122/41/2 120/42/2 118/43/2
f 125/44/3 126/45/3 128/46/3 127/47/3
f 127/47/7 128/46/7 114/48/7 113/49/7
f 113/42/1 115/50/1 117/51/1 119/52/1 121/53/1 123/54/1 125/55/1 127/56/1
