# Blender 4.5.3 LTS
# www.blender.org
mtllib small_mining_machine.mtl
o Cube
v -1.000000 -1.001031 -1.000000
v -1.000000 -1.001031 2.000000
v 2.000000 -1.001031 -1.000000
v 2.000000 -1.001031 2.000000
v 0.000000 -1.001031 0.000000
v 0.000000 -1.001031 1.000000
v 1.000000 -1.001031 0.000000
v 1.000000 -1.001031 1.000000
v 0.000000 -0.001031 0.000000
v 0.000000 -0.001031 1.000000
v 1.000000 -0.001031 0.000000
v 1.000000 -0.001031 1.000000
v -1.000000 -1.001031 0.000000
v -1.000000 -1.001031 1.000000
v -1.000000 -0.001031 2.000000
v -1.000000 1.998969 1.000000
v -1.000000 1.998969 0.000000
v -1.000000 -0.001031 -1.000000
v 1.000000 -1.001031 -1.000000
v 0.000000 -1.001031 -1.000000
v 0.000000 1.998969 -1.000000
v 1.000000 1.998969 -1.000000
v 2.000000 -0.001031 -1.000000
v 2.000000 -1.001031 1.000000
v 2.000000 -1.001031 0.000000
v 2.000000 1.998969 0.000000
v 2.000000 1.998969 1.000000
v 2.000000 -0.001031 2.000000
v 0.000000 -1.001031 2.000000
v 1.000000 -1.001031 2.000000
v 1.000000 1.998969 2.000000
v 0.000000 1.998969 2.000000
v 1.000000 1.998969 0.000000
v 1.000000 1.998969 1.000000
v 0.000000 1.998969 0.000000
v 0.000000 1.998969 1.000000
v 1.000000 -0.001031 2.000000
v 0.000000 -0.001031 2.000000
v 1.000000 0.998969 2.000000
v 0.000000 0.998969 2.000000
v 2.000000 -0.001031 0.000000
v 2.000000 -0.001031 1.000000
v 2.000000 0.998969 0.000000
v 2.000000 0.998969 1.000000
v 0.000000 -0.001031 -1.000000
v 1.000000 -0.001031 -1.000000
v 0.000000 0.998969 -1.000000
v 1.000000 0.998969 -1.000000
v -1.000000 -0.001031 1.000000
v -1.000000 -0.001031 0.000000
v -1.000000 0.998969 1.000000
v -1.000000 0.998969 0.000000
v 0.000000 0.998969 0.000000
v 1.000000 0.998969 1.000000
v 0.000000 0.998969 1.000000
v 1.000000 0.998969 0.000000
v 2.000000 0.498969 1.000000
v 2.000000 0.498969 0.000000
v 0.000000 0.498969 2.000000
v 1.000000 0.498969 2.000000
v 0.000000 0.498969 -1.000000
v 1.000000 0.498969 -1.000000
v -1.000000 0.498969 1.000000
v -1.000000 0.498969 0.000000
v 1.000000 0.498969 1.000000
v 0.000000 0.498969 1.000000
v 1.000000 0.498969 0.000000
v 0.000000 0.498969 0.000000
v 0.100000 1.998968 0.900000
v 0.100000 2.998969 0.900000
v 0.100000 1.998968 0.100000
v 0.100000 2.998969 0.100000
v 0.900000 1.998968 0.900000
v 0.900000 2.998969 0.900000
v 0.900000 1.998968 0.100000
v 0.900000 2.998969 0.100000
v -0.772728 0.008060 1.772727
v -0.772728 1.008060 1.772727
v -0.772728 0.008060 1.472727
v -0.772728 1.008060 1.472727
v -0.472728 0.008060 1.772727
v -0.472728 1.008060 1.772727
v -0.472728 0.008060 1.472727
v -0.472728 1.008060 1.472727
v -0.472728 0.958060 1.772727
v 0.000000 0.958060 1.772727
v -0.472728 0.958060 1.472727
v 0.000000 0.958060 1.472727
v -0.472728 0.658060 1.772727
v 0.000000 0.658060 1.772727
v -0.472728 0.658060 1.472727
v 0.000000 0.658060 1.472727
v -0.472728 0.958060 0.472727
v -0.772728 0.958060 1.472727
v -0.772728 0.958060 0.472727
v -0.472728 0.658060 0.472727
v -0.772728 0.658060 1.472727
v -0.772728 0.658060 0.472727
v 1.776860 0.008060 1.776860
v 1.776860 1.008060 1.776860
v 1.476860 0.008060 1.776860
v 1.476860 1.008060 1.776860
v 1.776860 0.008060 1.476860
v 1.776860 1.008060 1.476860
v 1.476860 0.008060 1.476860
v 1.476860 1.008060 1.476860
v 1.776860 0.958060 1.476860
v 1.776860 0.958060 1.004131
v 1.476860 0.958060 1.476860
v 1.476860 0.958060 1.004131
v 1.776860 0.658060 1.476860
v 1.776860 0.658060 1.004131
v 1.476860 0.658060 1.476860
v 1.476860 0.658060 1.004131
v 1.004132 0.958060 1.476860
v 1.476860 0.958060 1.776860
v 1.004132 0.958060 1.776860
v 1.004132 0.658060 1.476860
v 1.476860 0.658060 1.776860
v 1.004132 0.658060 1.776860
v 1.776860 0.008060 -0.776860
v 1.776860 1.008060 -0.776860
v 1.776860 0.008060 -0.476860
v 1.776860 1.008060 -0.476860
v 1.476860 0.008060 -0.776860
v 1.476860 1.008060 -0.776860
v 1.476860 0.008060 -0.476860
v 1.476860 1.008060 -0.476860
v 1.476860 0.958060 -0.776860
v 1.004132 0.958060 -0.776860
v 1.476860 0.958060 -0.476860
v 1.004132 0.958060 -0.476860
v 1.476860 0.658060 -0.776860
v 1.004132 0.658060 -0.776860
v 1.476860 0.658060 -0.476860
v 1.004132 0.658060 -0.476860
v 1.476860 0.958060 -0.004131
v 1.776860 0.958060 -0.476859
v 1.776860 0.958060 -0.004131
v 1.476860 0.658060 -0.004131
v 1.776860 0.658060 -0.476859
v 1.776860 0.658060 -0.004131
v -0.776859 0.008060 -0.776860
v -0.776859 1.008060 -0.776860
v -0.476859 0.008060 -0.776860
v -0.476859 1.008060 -0.776860
v -0.776859 0.008060 -0.476860
v -0.776859 1.008060 -0.476860
v -0.476859 0.008060 -0.476860
v -0.476859 1.008060 -0.476860
v -0.776859 0.958060 -0.476860
v -0.776859 0.958060 -0.004131
v -0.476859 0.958060 -0.476860
v -0.476859 0.958060 -0.004131
v -0.776859 0.658060 -0.476860
v -0.776859 0.658060 -0.004131
v -0.476859 0.658060 -0.476860
v -0.476859 0.658060 -0.004131
v -0.004131 0.958060 -0.476860
v -0.476859 0.958060 -0.776860
v -0.004131 0.958060 -0.776860
v -0.004131 0.658060 -0.476860
v -0.476859 0.658060 -0.776860
v -0.004131 0.658060 -0.776860
v 1.776860 0.148969 -0.476860
v 1.776860 0.448969 -0.476860
v 1.476860 0.148969 -0.476860
v 1.476860 0.448969 -0.476860
v 1.776860 0.448969 1.472727
v 1.476860 0.448969 1.472727
v 1.776860 0.148969 1.472727
v 1.476860 0.148969 1.472727
v -0.476859 0.148969 -0.476860
v -0.476859 0.448969 -0.476860
v -0.776859 0.148969 -0.476860
v -0.776859 0.448969 -0.476860
v -0.476859 0.448969 1.472727
v -0.776859 0.448969 1.472727
v -0.476859 0.148969 1.472727
v -0.776859 0.148969 1.472727
v -0.472727 0.148969 -0.776860
v -0.472727 0.448969 -0.776860
v -0.472727 0.148969 -0.476860
v -0.472727 0.448969 -0.476860
v 1.476860 0.448969 -0.776860
v 1.476860 0.448969 1.776860
v 1.476860 0.148969 -0.776860
v 1.476860 0.148969 1.776860
v -0.472727 0.148969 1.476860
v -0.472727 0.448969 1.476860
v -0.472727 0.148969 1.776860
v -0.472727 0.448969 1.776860
v 1.476860 0.448969 1.476859
v 1.476860 0.148969 1.476859
vn -0.0000 -1.0000 -0.0000
vn -1.0000 -0.0000 -0.0000
vn 1.0000 -0.0000 -0.0000
vn -0.0000 -0.0000 1.0000
vn -0.0000 -0.0000 -1.0000
vn -0.0000 1.0000 -0.0000
vn 1.0000 -0.0069 0.0011
vt -0.000000 0.750000
vt 0.250000 0.750000
vt 0.250000 1.000000
vt -0.000000 1.000000
vt 1.000000 1.000000
vt 0.750000 1.000000
vt 0.750000 0.750000
vt 1.000000 0.750000
vt 0.000000 0.750000
vt 0.000000 1.000000
vt 0.000000 1.000000
vt 0.000000 0.750000
vt 0.250000 0.750000
vt 0.250000 1.000000
vt 0.250000 0.750000
vt 0.250000 1.000000
vt -0.000000 1.000000
vt 0.250001 1.000000
vt 0.000000 0.500000
vt 0.250000 0.500000
vt 0.000000 0.750000
vt 0.750000 1.000000
vt 0.750000 0.750000
vt 0.250000 0.500000
vt 0.500000 0.500000
vt 0.500000 0.750000
vt 0.250000 0.750000
vt -0.000000 0.250000
vt 0.250000 0.250000
vt 0.250000 0.500000
vt -0.000000 0.500000
vt 0.000000 0.250000
vt 0.250000 0.250000
vt 0.250000 0.500000
vt 0.000000 0.750000
vt 0.250000 0.750000
vt 0.000000 1.001302
vt 1.000000 0.406250
vt 1.000000 0.656250
vt 0.750000 0.656250
vt 0.750000 0.406250
vt 0.000000 0.250000
vt 0.250000 0.250000
vt 0.250000 1.000000
vt 0.000000 1.001301
vt 1.000000 1.000000
vt 0.750000 1.000000
vt 0.250000 1.000000
vt -0.000000 1.000000
vt 0.250000 0.750000
vt 0.249999 1.000000
vt 0.000000 1.000000
vt -0.000000 0.750000
vt 0.250000 0.750000
vt 0.250000 1.000000
vt 0.249999 0.750000
vt 0.250000 0.500000
vt 0.000000 0.500000
vt 0.312500 1.000000
vt 0.312500 0.750000
vt 0.375000 0.750000
vt 0.375000 1.000000
vt 0.312500 1.000000
vt 0.312500 0.750000
vt 0.375000 0.750000
vt 0.375000 1.000000
vt 0.312500 1.000000
vt 0.312500 0.750000
vt 0.000000 0.000000
vt 0.250000 0.000000
vt 0.000000 1.000000
vt 0.500000 0.656250
vt 0.656250 0.656250
vt 0.656250 0.843750
vt 0.500000 0.843750
vt 0.656250 1.000000
vt 0.500000 1.000000
vt 0.000000 1.000000
vt 0.000000 0.750000
vt 0.250000 0.750000
vt 0.250000 1.000000
vt 0.250000 1.000000
vt 0.000000 1.000000
vt 0.250000 1.000000
vt 0.312500 0.937500
vt 0.312500 1.000000
vt 0.250000 1.000000
vt 0.250000 0.937500
vt 0.453125 0.749999
vt 0.453125 0.999999
vt 0.375000 0.999999
vt 0.375000 0.749999
vt 0.375000 0.750000
vt 0.375000 1.000000
vt 0.250000 0.937500
vt 0.375000 0.750000
vt 0.375000 1.000000
vt 0.374999 0.750000
vt 0.374999 1.000000
vt 0.250000 0.937500
vt 0.312500 0.937500
vt 0.312500 1.000000
vt 0.250000 1.000000
vt 0.250000 0.937500
vt 0.312500 0.937500
vt 0.250000 1.000000
vt 0.000000 0.500000
vt 0.000000 0.500000
vt 0.000000 0.500000
vt 0.000000 0.500000
vt 0.453125 1.000000
vt 0.375000 1.000000
vt 0.375000 0.750000
vt 0.453125 0.750000
vt 0.453125 1.000000
vt 0.375000 1.000000
vt 0.375000 0.750000
vt 0.453125 1.000000
vt 0.375000 0.750000
vt 0.453125 0.750000
vt 0.375000 0.750000
vt 0.453125 1.000000
vt 0.375000 1.000000
vt 0.453125 1.000000
vt 0.375000 0.750000
vt 0.453126 0.750000
vt 0.453125 0.750000
vt 0.374999 0.750002
vt 0.453134 0.750000
vt 0.453127 1.000001
vt 0.375006 1.000001
vt 0.453123 0.750000
vt 0.453123 0.999999
vt 0.374999 0.999999
vt 0.374999 0.750000
vt 0.453123 0.999999
vt 0.374999 0.750000
vt 0.374999 0.750000
s 0
usemtl Material
f 8/1/1 24/2/1 4/3/1 30/4/1
f 32/5/2 36/6/2 55/7/2 40/8/2
f 14/9/1 6/2/1 29/3/1 2/10/1
f 29/11/3 6/12/3 10/13/3 38/14/3
f 1/1/1 20/15/1 5/16/1 13/4/1
f 13/17/4 5/12/4 9/13/4 50/18/4
f 19/1/1 3/2/1 25/3/1 7/4/1
f 24/13/5 8/14/5 12/11/5 42/12/5
f 9/19/1 11/20/1 12/2/1 10/21/1
f 22/5/3 33/22/3 56/23/3 48/8/3
f 34/24/6 36/25/6 32/26/6 31/27/6
f 26/28/6 33/29/6 34/30/6 27/31/6
f 22/32/6 21/33/6 35/34/6 33/31/6
f 35/28/6 17/33/6 16/34/6 36/31/6
f 29/35/4 38/36/4 15/3/4 2/37/4
f 4/35/4 28/36/4 37/3/4 30/37/4
f 39/38/4 31/39/4 32/40/4 40/41/4
f 24/35/3 42/36/3 28/3/3 4/37/3
f 3/35/3 23/36/3 41/3/3 25/37/3
f 48/8/3 56/7/3 67/40/3 62/39/3
f 43/8/3 26/5/3 27/6/3 44/7/3
f 19/35/5 46/36/5 23/3/5 3/37/5
f 1/35/5 18/36/5 45/3/5 20/37/5
f 10/42/2 55/43/2 53/20/2 9/19/2
f 47/8/5 21/5/5 22/22/5 48/7/5
f 13/35/2 50/36/2 18/3/2 1/37/2
f 2/35/2 15/36/2 49/44/2 14/45/2
f 43/8/3 44/7/3 57/40/3 58/39/3
f 51/8/2 16/46/2 17/47/2 52/7/2
f 7/13/4 25/48/4 41/49/4 11/12/4
f 19/50/2 7/51/2 11/17/2 46/12/2
f 5/17/3 20/12/3 45/50/3 9/51/3
f 33/19/6 35/20/6 36/2/6 34/21/6
f 8/52/2 30/53/2 37/54/2 12/55/2
f 6/17/5 14/12/5 49/56/5 10/14/5
f 12/42/4 54/43/4 55/57/4 10/58/4
f 11/42/3 56/43/3 54/57/3 12/58/3
f 53/8/2 47/7/2 61/40/2 68/39/2
f 9/42/5 53/43/5 56/20/5 11/19/5
f 54/40/4 65/39/4 57/8/4 44/7/4
f 83/59/3 84/60/3 82/61/3 81/62/3
f 79/63/5 80/64/5 84/65/5 83/66/5
f 77/67/2 78/68/2 80/61/2 79/62/2
f 17/46/5 35/47/5 53/7/5 52/8/5
f 35/5/2 21/22/2 47/7/2 53/8/2
f 36/43/4 16/42/4 51/69/4 55/70/4
f 27/5/4 34/22/4 54/7/4 44/8/4
f 34/5/3 31/22/3 39/7/3 54/8/3
f 33/5/5 26/47/5 43/7/5 56/8/5
f 51/8/2 52/7/2 64/40/2 63/39/2
f 56/8/5 43/7/5 58/40/5 67/39/5
f 39/8/4 40/7/4 59/40/4 60/39/4
f 54/7/3 39/40/3 60/39/3 65/8/3
f 47/8/5 48/7/5 62/40/5 61/39/5
f 55/7/4 51/40/4 63/39/4 66/8/4
f 40/7/2 55/40/2 66/39/2 59/8/2
f 52/7/5 53/40/5 68/39/5 64/8/5
f 15/21/6 38/2/6 10/3/6 49/71/6
f 69/72/2 70/73/2 72/74/2 71/75/2
f 71/72/5 72/73/5 76/74/5 75/75/5
f 75/72/3 76/73/3 74/74/3 73/75/3
f 73/72/4 74/73/4 70/74/4 69/75/4
f 76/75/6 72/74/6 70/76/6 74/77/6
f 50/78/6 9/79/6 45/80/6 18/81/6
f 11/71/6 41/79/6 23/2/6 46/82/6
f 37/83/6 28/53/6 42/80/6 12/84/6
f 84/85/6 80/86/6 78/87/6 82/88/6
f 81/67/4 82/68/4 78/65/4 77/66/4
f 91/89/1 92/90/1 90/91/1 89/92/1
f 87/91/5 88/92/5 92/89/5 91/90/5
f 85/91/6 86/92/6 88/89/6 87/90/6
f 89/89/4 90/90/4 86/91/4 85/92/4
f 97/89/1 98/90/1 96/91/1 91/92/1
f 94/91/2 95/92/2 98/89/2 97/90/2
f 87/89/6 93/90/6 95/91/6 94/92/6
f 91/89/3 96/90/3 93/91/3 87/92/3
f 105/59/5 106/60/5 104/61/5 103/62/5
f 101/59/2 102/60/2 106/93/2 105/94/2
f 99/67/4 100/68/4 102/65/4 101/66/4
f 106/86/6 102/87/6 100/95/6 104/85/6
f 103/59/3 104/60/3 100/96/3 99/97/3
f 113/89/1 114/90/1 112/91/1 111/92/1
f 109/91/2 110/92/2 114/89/2 113/90/2
f 107/89/6 108/90/6 110/91/6 109/92/6
f 111/89/3 112/90/3 108/91/3 107/92/3
f 119/91/1 120/92/1 118/89/1 113/90/1
f 116/91/4 117/92/4 120/89/4 119/90/4
f 109/89/6 115/90/6 117/91/6 116/92/6
f 113/89/5 118/90/5 115/91/5 109/92/5
f 127/59/2 128/60/2 126/61/2 125/62/2
f 121/67/3 122/68/3 124/98/3 123/99/3
f 128/100/6 124/101/6 122/102/6 126/103/6
f 125/67/5 126/68/5 122/65/5 121/66/5
f 135/91/1 136/92/1 134/89/1 133/90/1
f 131/91/4 132/92/4 136/89/4 135/90/4
f 129/89/6 130/90/6 132/91/6 131/92/6
f 133/89/5 134/90/5 130/91/5 129/92/5
f 141/91/1 142/92/1 140/89/1 135/90/1
f 138/91/3 139/92/3 142/89/3 141/90/3
f 131/91/6 137/92/6 139/89/6 138/90/6
f 135/89/2 140/90/2 137/91/2 131/92/2
f 149/59/4 150/60/4 148/61/4 147/62/4
f 143/59/5 144/60/5 146/61/5 145/62/5
f 150/104/6 146/105/6 144/102/6 148/106/6
f 147/67/2 148/68/2 144/65/2 143/66/2
f 157/91/1 158/92/1 156/89/1 155/90/1
f 153/91/3 154/92/3 158/89/3 157/90/3
f 151/91/6 152/92/6 154/89/6 153/90/6
f 155/89/2 156/90/2 152/91/2 151/92/2
f 163/91/1 164/92/1 162/89/1 157/90/1
f 160/91/5 161/92/5 164/89/5 163/90/5
f 153/89/6 159/90/6 161/91/6 160/92/6
f 157/89/4 162/90/4 159/91/4 153/92/4
f 59/107/1 66/42/1 65/43/1 60/20/1
f 67/43/1 58/57/1 57/108/1 65/42/1
f 62/20/1 67/109/1 68/42/1 61/43/1
f 64/57/1 68/110/1 66/42/1 63/43/1
f 167/111/1 165/112/1 171/113/1 172/114/1
f 165/115/3 166/116/3 169/117/3 171/114/3
f 166/118/6 168/112/6 170/119/6 169/120/6
f 176/117/2 175/114/2 180/115/2 178/116/2
f 175/111/1 173/112/1 179/113/1 180/114/1
f 174/118/6 176/112/6 178/119/6 177/120/6
f 183/121/1 181/114/1 187/122/1 167/112/1
f 181/115/5 182/123/5 185/117/5 187/114/5
f 182/124/6 184/112/6 168/125/6 185/126/6
f 192/117/4 191/114/4 188/115/4 186/123/4
f 191/121/1 189/114/1 194/122/1 188/112/1
f 190/124/6 192/112/6 186/125/6 193/127/6
f 128/60/4 127/59/4 123/99/4 124/98/4
f 150/60/3 149/59/3 145/62/3 146/61/3
f 173/128/7 184/129/7 177/130/7 179/131/7
f 194/132/5 189/133/5 190/134/5 193/135/5
f 167/132/2 172/136/2 170/134/2 168/137/2
f 183/132/4 167/136/4 168/134/4 184/138/4
